<svg width="57" height="56" viewBox="0 0 57 56" fill="none" xmlns="http://www.w3.org/2000/svg">
    <g filter="url(#filter0_i_314_1066)">
        <path
            d="M22.1187 19.174C22.136 19.0714 22.145 18.9659 22.145 18.8582C22.145 17.8503 21.3564 17.0333 20.3835 17.0333C19.6602 17.0333 19.0387 17.4849 18.7675 18.1306C18.5477 17.9341 18.2625 17.8154 17.9508 17.8154C17.2559 17.8154 16.6926 18.4055 16.6926 19.1333C16.6926 19.1739 16.6943 19.214 16.6977 19.2536C16.3635 19.4232 16.1333 19.779 16.1333 20.1906C16.1333 20.7665 16.584 21.2333 17.1399 21.2333H21.8934C22.4493 21.2333 22.9 20.7665 22.9 20.1906C22.9 19.6949 22.5662 19.28 22.1187 19.174Z"
            fill="url(#paint0_linear_314_1066)" />
    </g>
    <g filter="url(#filter1_i_314_1066)">
        <path
            d="M38.4773 30.5098C38.556 30.0651 38.597 29.6078 38.597 29.1409C38.597 24.7737 35.0071 21.2333 30.5788 21.2333C27.2867 21.2333 24.458 23.19 23.2232 25.9884C22.2228 25.1366 20.9246 24.6223 19.5061 24.6223C16.343 24.6223 13.7788 27.1792 13.7788 30.3333C13.7788 30.509 13.7867 30.6828 13.8023 30.8544C12.2809 31.5893 11.2333 33.1313 11.2333 34.9147C11.2333 37.4103 13.2847 39.4333 15.8152 39.4333H37.4515C39.982 39.4333 42.0333 37.4103 42.0333 34.9147C42.0333 32.7669 40.5139 30.9691 38.4773 30.5098Z"
            fill="url(#paint1_linear_314_1066)" />
    </g>
    <g filter="url(#filter2_i_314_1066)">
        <path
            d="M43.2424 18.9064C43.2424 19.2236 43.2151 19.5344 43.1626 19.8365C44.5204 20.1487 45.5333 21.3703 45.5333 22.8296C45.5333 24.5254 44.1658 25.9 42.4788 25.9H37.8948C36.6398 23.1488 33.8361 21.2333 30.5788 21.2333C28.4376 21.2333 26.4925 22.061 25.0544 23.4096C25.0187 23.2218 25 23.0279 25 22.8296C25 21.6179 25.6984 20.57 26.7126 20.0707C26.7023 19.9541 26.697 19.836 26.697 19.7167C26.697 17.5735 28.4064 15.8361 30.5152 15.8361C31.4609 15.8361 32.3263 16.1855 32.9932 16.7643C33.8165 14.8628 35.7022 13.5333 37.897 13.5333C40.8492 13.5333 43.2424 15.9389 43.2424 18.9064Z"
            fill="url(#paint2_linear_314_1066)" />
    </g>
    <defs>
        <filter id="filter0_i_314_1066" x="16.1333" y="17.0333" width="6.76666" height="14.2"
            filterUnits="userSpaceOnUse" color-interpolation-filters="sRGB">
            <feFlood flood-opacity="0" result="BackgroundImageFix" />
            <feBlend mode="normal" in="SourceGraphic" in2="BackgroundImageFix" result="shape" />
            <feColorMatrix in="SourceAlpha" type="matrix"
                values="0 0 0 0 0 0 0 0 0 0 0 0 0 0 0 0 0 0 127 0" result="hardAlpha" />
            <feOffset dy="11" />
            <feGaussianBlur stdDeviation="5" />
            <feComposite in2="hardAlpha" operator="arithmetic" k2="-1" k3="1" />
            <feColorMatrix type="matrix" values="0 0 0 0 1 0 0 0 0 1 0 0 0 0 1 0 0 0 1 0" />
            <feBlend mode="normal" in2="shape" result="effect1_innerShadow_314_1066" />
        </filter>
        <filter id="filter1_i_314_1066" x="11.2333" y="21.2333" width="30.8" height="28.2"
            filterUnits="userSpaceOnUse" color-interpolation-filters="sRGB">
            <feFlood flood-opacity="0" result="BackgroundImageFix" />
            <feBlend mode="normal" in="SourceGraphic" in2="BackgroundImageFix" result="shape" />
            <feColorMatrix in="SourceAlpha" type="matrix"
                values="0 0 0 0 0 0 0 0 0 0 0 0 0 0 0 0 0 0 127 0" result="hardAlpha" />
            <feOffset dy="11" />
            <feGaussianBlur stdDeviation="5" />
            <feComposite in2="hardAlpha" operator="arithmetic" k2="-1" k3="1" />
            <feColorMatrix type="matrix" values="0 0 0 0 1 0 0 0 0 1 0 0 0 0 1 0 0 0 1 0" />
            <feBlend mode="normal" in2="shape" result="effect1_innerShadow_314_1066" />
        </filter>
        <filter id="filter2_i_314_1066" x="25" y="13.5333" width="20.5333" height="22.3667"
            filterUnits="userSpaceOnUse" color-interpolation-filters="sRGB">
            <feFlood flood-opacity="0" result="BackgroundImageFix" />
            <feBlend mode="normal" in="SourceGraphic" in2="BackgroundImageFix" result="shape" />
            <feColorMatrix in="SourceAlpha" type="matrix"
                values="0 0 0 0 0 0 0 0 0 0 0 0 0 0 0 0 0 0 127 0" result="hardAlpha" />
            <feOffset dy="11" />
            <feGaussianBlur stdDeviation="5" />
            <feComposite in2="hardAlpha" operator="arithmetic" k2="-1" k3="1" />
            <feColorMatrix type="matrix" values="0 0 0 0 1 0 0 0 0 1 0 0 0 0 1 0 0 0 1 0" />
            <feBlend mode="normal" in2="shape" result="effect1_innerShadow_314_1066" />
        </filter>
        <linearGradient id="paint0_linear_314_1066" x1="16.5637" y1="20.8583" x2="23.6055"
            y2="15.8219" gradientUnits="userSpaceOnUse">
            <stop stop-color="white" stop-opacity="0.65" />
            <stop offset="1" stop-color="white" stop-opacity="0.58" />
        </linearGradient>
        <linearGradient id="paint1_linear_314_1066" x1="13.1923" y1="37.8083" x2="44.1615"
            y2="14.5422" gradientUnits="userSpaceOnUse">
            <stop stop-color="white" stop-opacity="0.65" />
            <stop offset="1" stop-color="white" stop-opacity="0.58" />
        </linearGradient>
        <linearGradient id="paint2_linear_314_1066" x1="44.2273" y1="24.7958" x2="23.299"
            y2="9.3697" gradientUnits="userSpaceOnUse">
            <stop stop-color="white" stop-opacity="0.65" />
            <stop offset="1" stop-color="white" stop-opacity="0.58" />
        </linearGradient>
    </defs>
</svg>
    