<svg width="57" height="56" viewBox="0 0 57 56" fill="none" xmlns="http://www.w3.org/2000/svg">
    <g filter="url(#filter0_i_314_1054)">
        <path
            d="M22.3521 19.174C22.3694 19.0714 22.3784 18.9659 22.3784 18.8582C22.3784 17.8503 21.5897 17.0333 20.6168 17.0333C19.8935 17.0333 19.2721 17.4849 19.0008 18.1306C18.781 17.9341 18.4958 17.8154 18.1842 17.8154C17.4892 17.8154 16.9259 18.4055 16.9259 19.1333C16.9259 19.1739 16.9276 19.214 16.9311 19.2536C16.5968 19.4232 16.3667 19.779 16.3667 20.1906C16.3667 20.7665 16.8173 21.2333 17.3733 21.2333H22.1267C22.6827 21.2333 23.1333 20.7665 23.1333 20.1906C23.1333 19.6949 22.7995 19.28 22.3521 19.174Z"
            fill="url(#paint0_linear_314_1054)" />
    </g>
    <g filter="url(#filter1_i_314_1054)">
        <path
            d="M38.7106 30.5098C38.7893 30.0651 38.8303 29.6078 38.8303 29.1409C38.8303 24.7737 35.2404 21.2333 30.8121 21.2333C27.52 21.2333 24.6913 23.19 23.4565 25.9884C22.4561 25.1366 21.158 24.6223 19.7394 24.6223C16.5763 24.6223 14.0121 27.1792 14.0121 30.3333C14.0121 30.509 14.0201 30.6828 14.0356 30.8544C12.5142 31.5893 11.4667 33.1313 11.4667 34.9147C11.4667 37.4103 13.518 39.4333 16.0485 39.4333H37.6848C40.2153 39.4333 42.2667 37.4103 42.2667 34.9147C42.2667 32.7669 40.7472 30.9691 38.7106 30.5098Z"
            fill="url(#paint1_linear_314_1054)" />
    </g>
    <g filter="url(#filter2_i_314_1054)">
        <path
            d="M43.4758 18.9064C43.4758 19.2236 43.4484 19.5344 43.396 19.8365C44.7537 20.1487 45.7667 21.3703 45.7667 22.8296C45.7667 24.5254 44.3991 25.9 42.7121 25.9H38.1281C36.8731 23.1488 34.0694 21.2333 30.8121 21.2333C28.671 21.2333 26.7258 22.061 25.2877 23.4096C25.252 23.2218 25.2333 23.0279 25.2333 22.8296C25.2333 21.6179 25.9317 20.57 26.946 20.0707C26.9356 19.9541 26.9303 19.836 26.9303 19.7167C26.9303 17.5735 28.6398 15.8361 30.7485 15.8361C31.6942 15.8361 32.5596 16.1855 33.2265 16.7643C34.0498 14.8628 35.9356 13.5333 38.1303 13.5333C41.0825 13.5333 43.4758 15.9389 43.4758 18.9064Z"
            fill="url(#paint2_linear_314_1054)" />
    </g>
    <g filter="url(#filter3_i_314_1054)">
        <path
            d="M19.676 41.4099C18.4805 42.9781 16.8067 46.1146 19.676 46.1146C22.5452 46.1146 20.8715 42.9781 19.676 41.4099Z"
            fill="#507CB1" />
    </g>
    <g filter="url(#filter4_i_314_1054)">
        <path
            d="M26.3969 43.7142C25.2014 45.2825 23.5277 48.419 26.3969 48.419C29.2662 48.419 27.5924 45.2825 26.3969 43.7142Z"
            fill="#507CB1" />
    </g>
    <g filter="url(#filter5_i_314_1054)">
        <path
            d="M32.6379 41.4099C31.4424 42.9781 29.7687 46.1146 32.6379 46.1146C35.5071 46.1146 33.8334 42.9781 32.6379 41.4099Z"
            fill="#507CB1" />
    </g>
    <defs>
        <filter id="filter0_i_314_1054" x="16.3667" y="17.0333" width="6.76666" height="14.2"
            filterUnits="userSpaceOnUse" color-interpolation-filters="sRGB">
            <feFlood flood-opacity="0" result="BackgroundImageFix" />
            <feBlend mode="normal" in="SourceGraphic" in2="BackgroundImageFix" result="shape" />
            <feColorMatrix in="SourceAlpha" type="matrix"
                values="0 0 0 0 0 0 0 0 0 0 0 0 0 0 0 0 0 0 127 0" result="hardAlpha" />
            <feOffset dy="11" />
            <feGaussianBlur stdDeviation="5" />
            <feComposite in2="hardAlpha" operator="arithmetic" k2="-1" k3="1" />
            <feColorMatrix type="matrix" values="0 0 0 0 1 0 0 0 0 1 0 0 0 0 1 0 0 0 1 0" />
            <feBlend mode="normal" in2="shape" result="effect1_innerShadow_314_1054" />
        </filter>
        <filter id="filter1_i_314_1054" x="11.4667" y="21.2333" width="30.8" height="28.2"
            filterUnits="userSpaceOnUse" color-interpolation-filters="sRGB">
            <feFlood flood-opacity="0" result="BackgroundImageFix" />
            <feBlend mode="normal" in="SourceGraphic" in2="BackgroundImageFix" result="shape" />
            <feColorMatrix in="SourceAlpha" type="matrix"
                values="0 0 0 0 0 0 0 0 0 0 0 0 0 0 0 0 0 0 127 0" result="hardAlpha" />
            <feOffset dy="11" />
            <feGaussianBlur stdDeviation="5" />
            <feComposite in2="hardAlpha" operator="arithmetic" k2="-1" k3="1" />
            <feColorMatrix type="matrix" values="0 0 0 0 1 0 0 0 0 1 0 0 0 0 1 0 0 0 1 0" />
            <feBlend mode="normal" in2="shape" result="effect1_innerShadow_314_1054" />
        </filter>
        <filter id="filter2_i_314_1054" x="25.2333" y="13.5333" width="20.5333" height="22.3667"
            filterUnits="userSpaceOnUse" color-interpolation-filters="sRGB">
            <feFlood flood-opacity="0" result="BackgroundImageFix" />
            <feBlend mode="normal" in="SourceGraphic" in2="BackgroundImageFix" result="shape" />
            <feColorMatrix in="SourceAlpha" type="matrix"
                values="0 0 0 0 0 0 0 0 0 0 0 0 0 0 0 0 0 0 127 0" result="hardAlpha" />
            <feOffset dy="11" />
            <feGaussianBlur stdDeviation="5" />
            <feComposite in2="hardAlpha" operator="arithmetic" k2="-1" k3="1" />
            <feColorMatrix type="matrix" values="0 0 0 0 1 0 0 0 0 1 0 0 0 0 1 0 0 0 1 0" />
            <feBlend mode="normal" in2="shape" result="effect1_innerShadow_314_1054" />
        </filter>
        <filter id="filter3_i_314_1054" x="18.0917" y="41.4099" width="3.16849" height="4.70471"
            filterUnits="userSpaceOnUse" color-interpolation-filters="sRGB">
            <feFlood flood-opacity="0" result="BackgroundImageFix" />
            <feBlend mode="normal" in="SourceGraphic" in2="BackgroundImageFix" result="shape" />
            <feColorMatrix in="SourceAlpha" type="matrix"
                values="0 0 0 0 0 0 0 0 0 0 0 0 0 0 0 0 0 0 127 0" result="hardAlpha" />
            <feOffset dy="9" />
            <feGaussianBlur stdDeviation="1.5" />
            <feComposite in2="hardAlpha" operator="arithmetic" k2="-1" k3="1" />
            <feColorMatrix type="matrix" values="0 0 0 0 1 0 0 0 0 1 0 0 0 0 1 0 0 0 0.21 0" />
            <feBlend mode="normal" in2="shape" result="effect1_innerShadow_314_1054" />
        </filter>
        <filter id="filter4_i_314_1054" x="24.8127" y="43.7142" width="3.16849" height="4.70471"
            filterUnits="userSpaceOnUse" color-interpolation-filters="sRGB">
            <feFlood flood-opacity="0" result="BackgroundImageFix" />
            <feBlend mode="normal" in="SourceGraphic" in2="BackgroundImageFix" result="shape" />
            <feColorMatrix in="SourceAlpha" type="matrix"
                values="0 0 0 0 0 0 0 0 0 0 0 0 0 0 0 0 0 0 127 0" result="hardAlpha" />
            <feOffset dy="9" />
            <feGaussianBlur stdDeviation="1.5" />
            <feComposite in2="hardAlpha" operator="arithmetic" k2="-1" k3="1" />
            <feColorMatrix type="matrix" values="0 0 0 0 1 0 0 0 0 1 0 0 0 0 1 0 0 0 0.21 0" />
            <feBlend mode="normal" in2="shape" result="effect1_innerShadow_314_1054" />
        </filter>
        <filter id="filter5_i_314_1054" x="31.0537" y="41.4099" width="3.16849" height="4.70471"
            filterUnits="userSpaceOnUse" color-interpolation-filters="sRGB">
            <feFlood flood-opacity="0" result="BackgroundImageFix" />
            <feBlend mode="normal" in="SourceGraphic" in2="BackgroundImageFix" result="shape" />
            <feColorMatrix in="SourceAlpha" type="matrix"
                values="0 0 0 0 0 0 0 0 0 0 0 0 0 0 0 0 0 0 127 0" result="hardAlpha" />
            <feOffset dy="9" />
            <feGaussianBlur stdDeviation="1.5" />
            <feComposite in2="hardAlpha" operator="arithmetic" k2="-1" k3="1" />
            <feColorMatrix type="matrix" values="0 0 0 0 1 0 0 0 0 1 0 0 0 0 1 0 0 0 0.21 0" />
            <feBlend mode="normal" in2="shape" result="effect1_innerShadow_314_1054" />
        </filter>
        <linearGradient id="paint0_linear_314_1054" x1="16.7971" y1="20.8583" x2="23.8388"
            y2="15.8219" gradientUnits="userSpaceOnUse">
            <stop stop-color="white" stop-opacity="0.65" />
            <stop offset="1" stop-color="white" stop-opacity="0.58" />
        </linearGradient>
        <linearGradient id="paint1_linear_314_1054" x1="13.4257" y1="37.8083" x2="44.3949"
            y2="14.5422" gradientUnits="userSpaceOnUse">
            <stop stop-color="white" stop-opacity="0.65" />
            <stop offset="1" stop-color="white" stop-opacity="0.58" />
        </linearGradient>
        <linearGradient id="paint2_linear_314_1054" x1="44.4607" y1="24.7958" x2="23.5323"
            y2="9.3697" gradientUnits="userSpaceOnUse">
            <stop stop-color="white" stop-opacity="0.65" />
            <stop offset="1" stop-color="white" stop-opacity="0.58" />
        </linearGradient>
    </defs>
</svg>
    